<?xml version="1.0" standalone="no"?><!DOCTYPE svg PUBLIC "-//W3C//DTD SVG 1.1//EN" "http://www.w3.org/Graphics/SVG/1.1/DTD/svg11.dtd"><svg t="1718685464678" class="icon" viewBox="0 0 1024 1024" version="1.1" xmlns="http://www.w3.org/2000/svg" p-id="13791" xmlns:xlink="http://www.w3.org/1999/xlink" width="32" height="32"><path d="M884 884.4H140c-38 0-68.8-30.9-68.8-68.8v-527c0-38 30.9-68.8 68.8-68.8h744c38 0 68.8 30.9 68.8 68.8v527c0.1 37.9-30.8 68.8-68.8 68.8z m-735-77.9h726v-509H149v509z" fill="#2A2A2A" p-id="13792"></path><path d="M191.5 367.2h637.4v133H191.5z" fill="#A5E8D0" p-id="13793"></path><path d="M381.8 766.9H258c-36.6 0-66.4-29.8-66.4-66.4v-104c0-36.6 29.8-66.4 66.4-66.4h123.8c36.6 0 66.4 29.8 66.4 66.4v104c0.1 36.6-29.7 66.4-66.4 66.4zM269.4 689h101v-81.2h-101V689zM564.6 453.2l-1.7-1.7c-14.7-14.7-14.7-38.6 0-53.3l49.9-49.9c14.7-14.7 38.6-14.7 53.3 0l1.7 1.7c14.7 14.7 14.7 38.6 0 53.3l-49.9 49.9c-14.7 14.7-38.7 14.7-53.3 0zM718.3 453.2l-1.7-1.7c-14.7-14.7-14.7-38.6 0-53.3l49.9-49.9c14.7-14.7 38.6-14.7 53.3 0l1.7 1.7c14.7 14.7 14.7 38.6 0 53.3l-49.9 49.9c-14.6 14.7-38.6 14.7-53.3 0z" fill="#2A2A2A" p-id="13794"></path></svg>