<?xml version="1.0" standalone="no"?><!DOCTYPE svg PUBLIC "-//W3C//DTD SVG 1.1//EN" "http://www.w3.org/Graphics/SVG/1.1/DTD/svg11.dtd"><svg t="1718691867587" class="icon" viewBox="0 0 1024 1024" version="1.1" xmlns="http://www.w3.org/2000/svg" p-id="23972" xmlns:xlink="http://www.w3.org/1999/xlink" width="32" height="32"><path d="M719 1012.2H307.2c-162.4 0-294-131.6-294-294.2V306.4c0-162.6 131.6-294.2 294-294.2h411.8c162.4 0 294.2 131.6 294.2 294.2V718c0 162.6-131.8 294.2-294.2 294.2z" fill="#1697EB" p-id="23973"></path><path d="M293.2 500.2c-77.6 0-140.4 62.8-140.4 140.4s62.8 140.4 140.4 140.4m439.4-280.8c77.6 0 140.4 62.8 140.4 140.4s-62.8 140.4-140.4 140.4" fill="#FFFFFF" p-id="23974"></path><path d="M745.2 780.8h-42.6V475.6c0-50.6-19.8-98.2-55.4-134-35.8-35.8-83.4-55.4-134-55.4s-98.2 19.8-134 55.4-55.4 83.4-55.4 134v304.8h-42.6V475.6c0-62 24.2-120.2 68-164s102-68 164-68 120.2 24.2 164 68 68 102 68 164v305.2z" fill="#FFFFFF" p-id="23975"></path><path d="M402.2 727c-13.4 0-24.4-11-24.4-24.4v-106.2c0-13.4 11-24.4 24.4-24.4s24.4 11 24.4 24.4v106.2c0 13.4-11 24.4-24.4 24.4z m224.4 0c-13.4 0-24.4-11-24.4-24.4v-106.2c0-13.4 11-24.4 24.4-24.4 13.4 0 24.4 11 24.4 24.4v106.2c0 13.4-11 24.4-24.4 24.4zM516.4 694c-13.4 0-24.4-11-24.4-24.4V632c0-13.4 11-24.4 24.4-24.4s24.4 11 24.4 24.4v37.6c-0.2 13.4-11 24.4-24.4 24.4z" fill="#FFFFFF" p-id="23976"></path></svg>