<?xml version="1.0" standalone="no"?><!DOCTYPE svg PUBLIC "-//W3C//DTD SVG 1.1//EN" "http://www.w3.org/Graphics/SVG/1.1/DTD/svg11.dtd"><svg t="1718691906413" class="icon" viewBox="0 0 1024 1024" version="1.1" xmlns="http://www.w3.org/2000/svg" p-id="25412" xmlns:xlink="http://www.w3.org/1999/xlink" width="32" height="32"><path d="M160.93184 512A351.06816 351.06816 0 0 1 512 160.9728h315.96544c19.41504 0 35.14368 15.68768 35.14368 35.10272V512A351.10912 351.10912 0 0 1 512 863.10912H196.03456a35.10272 35.10272 0 0 1-35.10272-35.14368V512z" fill="#006BFF" p-id="25413"></path><path d="M498.40128 408.82176a104.12032 104.12032 0 0 1 65.45408 12.86144l34.89792-60.90752a174.32576 174.32576 0 0 0-238.01856 237.69088l60.98944-34.816a104.07936 104.07936 0 0 1 76.67712-154.8288z m116.89984 117.06368a104.07936 104.07936 0 0 1-154.95168 76.47232l-34.93888 60.94848A174.32576 174.32576 0 0 0 663.552 425.5744l-61.0304 34.816c11.34592 19.8656 15.85152 42.84416 12.82048 65.536z" fill="#FFFFFF" p-id="25414"></path></svg>