<?xml version="1.0" standalone="no"?><!DOCTYPE svg PUBLIC "-//W3C//DTD SVG 1.1//EN" "http://www.w3.org/Graphics/SVG/1.1/DTD/svg11.dtd"><svg t="1718685983655" class="icon" viewBox="0 0 1024 1024" version="1.1" xmlns="http://www.w3.org/2000/svg" p-id="17784" xmlns:xlink="http://www.w3.org/1999/xlink" width="32" height="32"><path d="M322.643456 465.92c-20.48-20.48-51.2-20.48-71.68 0s-20.48 51.2 0 71.68l215.04 215.04c20.48 20.48 51.2 20.48 71.68 0l471.04-471.04c20.48-20.48 20.48-51.2 0-71.68s-51.2-20.48-71.68 0l-435.2 435.2-179.2-179.2z" fill="#4B9AFC" p-id="17785"></path><path d="M967.763456 512c-25.6 0-46.08 20.48-51.2 46.08-20.48 204.8-194.56 363.52-409.6 363.52-250.88 0-450.56-230.4-399.36-491.52 30.72-153.6 148.48-281.6 302.08-317.44 81.92-20.48 163.84-15.36 235.52 10.24 35.84 15.36 71.68-10.24 71.68-46.08 0-20.48-10.24-40.96-30.72-46.08-61.44-20.48-133.12-30.72-204.8-30.72C220.243456 15.36 5.203456 235.52 0.083456 501.76-5.036544 788.48 225.363456 1024 512.083456 1024c261.12 0 481.28-199.68 506.88-455.68 5.12-30.72-20.48-56.32-51.2-56.32z" fill="#4B9AFC" p-id="17786"></path></svg>