<?xml version="1.0" standalone="no"?><!DOCTYPE svg PUBLIC "-//W3C//DTD SVG 1.1//EN" "http://www.w3.org/Graphics/SVG/1.1/DTD/svg11.dtd"><svg t="1718691950389" class="icon" viewBox="0 0 1024 1024" version="1.1" xmlns="http://www.w3.org/2000/svg" p-id="27478" xmlns:xlink="http://www.w3.org/1999/xlink" width="32" height="32"><path d="M509.9008 509.5936m-450.816 0a450.816 450.816 0 1 0 901.632 0 450.816 450.816 0 1 0-901.632 0Z" fill="#FFBC42" p-id="27479"></path><path d="M513.28 182.6304c-97.0752 0-175.7696 78.6944-175.7696 175.7696s92.5184 216.6784 175.7696 270.592c95.7952-86.016 175.7696-173.568 175.7696-270.592s-78.6944-175.7696-175.7696-175.7696z m0 259.4304c-47.7696 0-86.4768-38.7072-86.4768-86.4768 0-47.7696 38.7072-86.4768 86.4768-86.4768s86.4768 38.7072 86.4768 86.4768c0 47.7696-38.7072 86.4768-86.4768 86.4768z" fill="#FFFFFF" p-id="27480"></path><path d="M830.1568 714.5984l-45.568-187.1872a36.90496 36.90496 0 0 0-35.84-28.16h-72.448c-18.5344 25.6-34.816 45.312-47.104 59.3408 23.9616 12.1856 38.5024 28.1088 38.5024 45.5168 0 38.3488-70.2976 69.4272-156.9792 69.4272s-156.9792-31.0784-156.9792-69.4272c0-16.6912 13.312-32 35.5328-43.9808-13.6192-19.5584-29.184-43.3152-40.5504-60.8768H275.9168a36.9152 36.9152 0 0 0-35.84 28.0576l-46.2336 187.1872c-5.7344 23.296 11.8784 45.7728 35.84 45.7728h564.5824c23.9104 0 41.5232-22.4256 35.8912-45.6704z" fill="#FFFFFF" p-id="27481"></path></svg>