<?xml version="1.0" standalone="no"?><!DOCTYPE svg PUBLIC "-//W3C//DTD SVG 1.1//EN" "http://www.w3.org/Graphics/SVG/1.1/DTD/svg11.dtd"><svg t="1718685411091" class="icon" viewBox="0 0 1024 1024" version="1.1" xmlns="http://www.w3.org/2000/svg" p-id="11528" xmlns:xlink="http://www.w3.org/1999/xlink" width="32" height="32"><path d="M584.704 998.4H439.296c-228.352 0-413.696-185.344-413.696-413.696V439.296c0-228.352 185.344-413.696 413.696-413.696h145.408c228.352 0 413.696 185.344 413.696 413.696v145.408c0 228.352-185.344 413.696-413.696 413.696z" fill="#FFBE23" p-id="11529"></path><path d="M998.4 584.704V439.296c0-228.352-185.344-413.696-413.696-413.696H439.296C210.944 25.6 25.6 210.944 25.6 439.296v145.408c0 228.352 185.344 413.696 413.696 413.696h145.408c13.312 0 26.624-1.024 38.912-2.048 162.816-61.44 294.912-185.344 368.64-342.016 4.096-22.528 6.144-46.08 6.144-69.632z" fill="#FFBE23" p-id="11530"></path><path d="M998.4 584.704V439.296c0-228.352-185.344-413.696-413.696-413.696H439.296C210.944 25.6 25.6 210.944 25.6 439.296v145.408c0 228.352 185.344 413.696 413.696 413.696h145.408c13.312 0 26.624-1.024 38.912-2.048 162.816-61.44 294.912-185.344 368.64-342.016 4.096-22.528 6.144-46.08 6.144-69.632z" fill="#FFBF24" p-id="11531"></path><path d="M998.4 584.704V439.296c0-228.352-185.344-413.696-413.696-413.696H439.296C210.944 25.6 25.6 210.944 25.6 439.296v145.408c0 228.352 185.344 413.696 413.696 413.696h145.408c13.312 0 26.624-1.024 38.912-2.048 162.816-61.44 294.912-185.344 368.64-342.016 4.096-22.528 6.144-46.08 6.144-69.632z" fill="#FFBF24" p-id="11532"></path><path d="M584.704 25.6H439.296C210.944 25.6 25.6 210.944 25.6 439.296v145.408c0 158.72 90.112 296.96 222.208 366.592 45.056 10.24 91.136 16.384 139.264 16.384C715.776 967.68 983.04 700.416 983.04 371.712c0-17.408-1.024-34.816-2.048-51.2-51.2-171.008-208.896-294.912-396.288-294.912z" fill="#FFC424" p-id="11533"></path><path d="M911.36 371.712c0-91.136-23.552-177.152-64.512-252.928-71.68-58.368-161.792-93.184-261.12-93.184H439.296C210.944 25.6 25.6 210.944 25.6 439.296v145.408c0 78.848 22.528 153.6 61.44 216.064 84.992 59.392 188.416 94.208 300.032 94.208C675.84 896 911.36 660.48 911.36 371.712z" fill="#FFCA24" p-id="11534"></path><path d="M439.296 25.6C210.944 25.6 25.6 210.944 25.6 439.296v145.408c0 22.528 2.048 44.032 5.12 65.536 82.944 105.472 210.944 173.056 356.352 173.056C636.928 823.296 839.68 620.544 839.68 370.688 838.656 240.64 783.36 122.88 695.296 40.96c-34.816-9.216-71.68-15.36-109.568-15.36H439.296z" fill="#FFCF23" p-id="11535"></path><path d="M544.768 25.6H439.296C210.944 25.6 25.6 210.944 25.6 439.296v51.2c50.176 151.552 192.512 261.12 361.472 261.12 209.92 0 379.904-169.984 379.904-379.904 0-153.6-91.136-285.696-222.208-346.112z" fill="#FFD423" p-id="11536"></path><path d="M387.072 371.712m-308.224 0a308.224 308.224 0 1 0 616.448 0 308.224 308.224 0 1 0-616.448 0Z" fill="#FFD923" p-id="11537"></path><path d="M151.552 371.712a235.52 235.52 0 1 0 471.04 0 235.52 235.52 0 1 0-471.04 0Z" fill="#FFDD23" p-id="11538"></path><path d="M664.576 564.224l66.56-68.608c11.264-11.264 14.336-27.648 10.24-43.008-5.12-15.36-18.432-25.6-33.792-28.672l-84.992-13.312c-14.336-1.024-26.624-10.24-31.744-22.528l-38.912-82.944c-7.168-14.336-21.504-24.576-37.888-24.576s-31.744 9.216-37.888 24.576L437.248 389.12c-6.144 12.288-17.408 20.48-31.744 21.504L317.44 423.936c-15.36 2.048-28.672 13.312-33.792 28.672-5.12 15.36-1.024 31.744 10.24 43.008l67.584 69.632c6.144 7.168 10.24 16.384 10.24 26.624v5.12l-15.36 97.28c-3.072 16.384 4.096 31.744 17.408 40.96 13.312 9.216 30.72 10.24 45.056 2.048l73.728-39.936c6.144-4.096 13.312-6.144 20.48-6.144s13.312 2.048 18.432 5.12l75.776 40.96c6.144 3.072 13.312 5.12 20.48 5.12 9.216 0 17.408-3.072 24.576-8.192 13.312-9.216 19.456-25.6 17.408-40.96l-15.36-93.184v-1.024c0-3.072-1.024-5.12-1.024-8.192 0-10.24 4.096-19.456 11.264-26.624-1.024 0-1.024 0 0 0" fill="#FFFFFF" opacity=".8" p-id="11539"></path></svg>