<?xml version="1.0" standalone="no"?><!DOCTYPE svg PUBLIC "-//W3C//DTD SVG 1.1//EN" "http://www.w3.org/Graphics/SVG/1.1/DTD/svg11.dtd"><svg t="1718691926915" class="icon" viewBox="0 0 1024 1024" version="1.1" xmlns="http://www.w3.org/2000/svg" p-id="26421" xmlns:xlink="http://www.w3.org/1999/xlink" width="32" height="32"><path d="M723.99269 397.062295c0-87.19834-34.233161-169.223748-96.502557-230.822252C565.326668 104.535609 482.542092 70.620239 394.549274 70.620239c-3.354461 0-6.673613 0.123585-10.010419 0.123586a363.923747 363.923747 0 0 0-101.092872 70.779134c-142.352747 141.046273-142.352747 369.873503 0 510.93743a365.318497 365.318497 0 0 0 101.95797 71.273477 330.485064 330.485064 0 0 0 242.209765-95.866975C689.741874 566.127147 723.99269 484.20767 723.99269 397.026984z" fill="#9013FE" p-id="26422"></path><path d="M406.042718 794.47769a410.021108 410.021108 0 0 1-274.995211-105.312431 34.286126 34.286126 0 0 1-1.995022-49.345892 36.157562 36.157562 0 0 1 50.440506-1.959712c132.412948 119.295239 335.869857 115.128645 463.268769-9.463112 63.258079-61.863329 98.020892-143.977013 98.020892-231.369559 0-87.392546-34.762813-169.647469-98.020892-231.387213C579.503681 103.900027 495.536216 69.666866 406.201614 69.666866c-89.369913 0-173.460962 33.98599-236.595456 95.866975-70.284793 68.731148-105.559602 163.733024-96.643798 260.712267 1.765506 19.26167-12.799918 36.192873-32.379379 37.923069-19.597116 1.588955-37.02266-12.535092-38.788167-31.673177-10.787242-117.582698 32.008623-232.976169 117.353183-316.308052 158.401196-154.92315 415.953209-154.92315 574.33675 0a391.35971 391.35971 0 0 1 0 561.678073C613.895737 755.460008 509.978055 794.47769 406.042718 794.47769z" fill="#BD10E0" p-id="26423"></path><path d="M99.709776 626.11904a34.974673 34.974673 0 0 1-29.872361-16.948857 389.523584 389.523584 0 0 1-32.185174-67.301088 35.327775 35.327775 0 0 1 20.444559-45.302883 34.727503 34.727503 0 0 1 44.790887 20.65642 333.415804 333.415804 0 0 0 26.429624 55.313302c10.045729 16.595756 4.766866 38.364445-11.740615 48.374864a32.59124 32.59124 0 0 1-17.86692 5.208242zM1010.004658 1009.7988a48.021763 48.021763 0 0 1-68.18384 0L622.405476 686.870101a1.200544 1.200544 0 0 1 0-1.730196L688.859121 617.927093a1.182889 1.182889 0 0 1 1.712541 0l319.415341 322.928698a49.081066 49.081066 0 0 1 0 68.925353z" fill="#BD10E0" p-id="26424"></path></svg>